PathFileType	4	(x/y/z)	S06_SL_Cal_T01
DataRate	CameraRate	NumFrames	NumMarkers	Units	OrigDataRate	OrigDataStartFrame	OrigNumFrames
240	240	8	51	mm	240	900	2399
Frame#	Time	Sternum			R.Acromium			L.Acromium			Top.Head			R.ASIS			L.ASIS			R.PSIS			L.PSIS			R.Great.Tro			L.Great.Tro			R.Iliac.Crest			L.Iliac.Crest			V.Sacral			R.Thigh.Upper.Post			R.Thigh.Lower.Ant			R.Thigh.Lower.Post			R.Thigh.Upper.Ant			R.Knee.Lat			R.Knee.Med			R.Shank.Upper.Post			R.Shank.Lower.Ant			R.Shank.Lower.Post			R.Shank.Upper.Ant			R.Ankle.Lat			R.Ankle.Med			R.Heel.Upper			R.Heel.Med			R.Heel.Lat			R.Toe.Lat			R.Toe.Med			R.Toe.Tip			L.Thigh.Upper.Post			L.Thigh.Lower.Ant			L.Thigh.Lower.Post			L.Thigh.Upper.Ant			L.Knee.Lat			L.Knee.Med			L.Shank.Upper.Post			L.Shank.Lower.Ant			L.Shank.Lower.Post			L.Shank.Upper.Ant			L.Ankle.Lat			L.Ankle.Med			L.Heel.Upper			L.Heel.Med			L.Heel.Lat			L.Toe.Lat			L.Toe.Med			L.Toe.Tip			Cervical.Spine			Back			
		X1	Y1	Z1	X2	Y2	Z2	X3	Y3	Z3	X4	Y4	Z4	X5	Y5	Z5	X6	Y6	Z6	X7	Y7	Z7	X8	Y8	Z8	X9	Y9	Z9	X10	Y10	Z10	X11	Y11	Z11	X12	Y12	Z12	X13	Y13	Z13	X14	Y14	Z14	X15	Y15	Z15	X16	Y16	Z16	X17	Y17	Z17	X18	Y18	Z18	X19	Y19	Z19	X20	Y20	Z20	X21	Y21	Z21	X22	Y22	Z22	X23	Y23	Z23	X24	Y24	Z24	X25	Y25	Z25	X26	Y26	Z26	X27	Y27	Z27	X28	Y28	Z28	X29	Y29	Z29	X30	Y30	Z30	X31	Y31	Z31	X32	Y32	Z32	X33	Y33	Z33	X34	Y34	Z34	X35	Y35	Z35	X36	Y36	Z36	X37	Y37	Z37	X38	Y38	Z38	X39	Y39	Z39	X40	Y40	Z40	X41	Y41	Z41	X42	Y42	Z42	X43	Y43	Z43	X44	Y44	Z44	X45	Y45	Z45	X46	Y46	Z46	X47	Y47	Z47	X48	Y48	Z48	X49	Y49	Z49	X50	Y50	Z50	X51	Y51	Z51	

900	3.7458	758.12	1313.5	315.15	614.51	1542.8	465.59	614.5	1533.7	147.98	674.49	1828.5	308.98	725.4	1065.7	440.91	733.49	1059	187.77	528.09	1084.8	341.56	529.64	1088	261.53	662.31	1001.3	489.58	635.28	995.28	133.96	639.26	1142.4	468.8	663.6	1134.7	149.58	514.91	1051.6	304.45	640.59	753.03	496.18	690.38	667.6	469.43	622.34	666.71	481.42	712.69	755.56	480.69	633	551.55	475.95	639.77	543.75	349.44	569.06	328.35	494.12	625.82	260.16	480.09	561.35	251.24	485.3	634.47	335.86	488.62	587.76	112.32	471.9	605.88	112.22	385.14	522.45	74.406	428.61	531.26	43.717	397.79	529.12	43.267	463.32	704.59	36.311	507.02	734.55	44.285	387.43	799.89	54.02	436.39	667.59	733.52	129.45	714.12	645.47	177	643.38	646.39	141.8	732.62	738.07	162.12	620.37	551.18	151.28	655.84	543.07	269.12	559.36	326.47	143.44	620.59	262.55	133.65	552.98	254.38	153.45	624.11	334.04	128.99	589.62	111.55	136.71	606.62	109	225.48	518.81	72.988	179.39	525.46	46.143	211.74	522.33	47.354	149.67	697.42	45.783	98.899	727.63	43.473	216.31	795.35	55.507	157.47	571.77	1560	307.72	524	1291.7	308.34
901	3.75	758.1	1313.5	315.14	614.49	1542.8	465.59	614.47	1533.7	147.97	674.46	1828.5	308.99	725.38	1065.7	440.9	733.47	1059	187.77	528.06	1084.8	341.56	529.62	1088	261.53	662.29	1001.3	489.58	635.26	995.28	133.96	639.23	1142.4	468.8	663.57	1134.7	149.58	514.89	1051.6	304.44	640.57	753.03	496.18	690.36	667.62	469.41	622.32	666.72	481.41	712.67	755.57	480.69	632.99	551.56	475.94	639.77	543.76	349.43	569.05	328.35	494.11	625.82	260.16	480.09	561.35	251.24	485.29	634.47	335.86	488.62	587.76	112.32	471.9	605.88	112.22	385.14	522.45	74.405	428.61	531.26	43.716	397.79	529.12	43.266	463.32	704.59	36.312	507.02	734.55	44.285	387.43	799.89	54.022	436.39	667.58	733.53	129.45	714.12	645.48	176.99	643.37	646.39	141.8	732.61	738.08	162.12	620.37	551.17	151.27	655.84	543.07	269.12	559.37	326.47	143.44	620.59	262.55	133.65	552.98	254.38	153.44	624.11	334.04	128.99	589.61	111.54	136.71	606.62	109	225.48	518.81	72.987	179.39	525.46	46.143	211.74	522.33	47.352	149.67	697.42	45.783	98.899	727.63	43.472	216.31	795.35	55.51	157.47	571.75	1560	307.71	523.98	1291.7	308.34
902	3.7542	758.08	1313.5	315.14	614.47	1542.8	465.59	614.45	1533.7	147.97	674.43	1828.5	309	725.36	1065.7	440.9	733.44	1059	187.76	528.04	1084.8	341.55	529.59	1088	261.53	662.27	1001.3	489.58	635.23	995.28	133.96	639.21	1142.4	468.8	663.54	1134.7	149.57	514.87	1051.6	304.44	640.55	753.04	496.17	690.34	667.63	469.39	622.3	666.72	481.4	712.64	755.57	480.69	632.99	551.57	475.94	639.77	543.77	349.43	569.05	328.35	494.11	625.81	260.16	480.08	561.34	251.24	485.29	634.46	335.86	488.62	587.76	112.32	471.9	605.88	112.22	385.14	522.45	74.405	428.61	531.26	43.715	397.79	529.12	43.265	463.32	704.59	36.312	507.02	734.55	44.286	387.43	799.88	54.024	436.39	667.58	733.53	129.45	714.11	645.48	176.99	643.37	646.39	141.8	732.61	738.08	162.12	620.37	551.17	151.27	655.84	543.08	269.12	559.37	326.47	143.43	620.59	262.54	133.65	552.99	254.37	153.44	624.11	334.04	128.99	589.61	111.54	136.71	606.62	109	225.48	518.8	72.986	179.39	525.45	46.143	211.74	522.33	47.35	149.67	697.42	45.784	98.899	727.63	43.471	216.31	795.35	55.513	157.47	571.72	1560	307.69	523.96	1291.7	308.35
903	3.7583	758.06	1313.5	315.13	614.45	1542.8	465.59	614.42	1533.7	147.96	674.41	1828.5	309.01	725.33	1065.7	440.9	733.42	1059	187.75	528.02	1084.8	341.55	529.57	1088	261.53	662.25	1001.3	489.58	635.21	995.28	133.95	639.18	1142.4	468.79	663.51	1134.7	149.57	514.85	1051.5	304.44	640.53	753.04	496.17	690.32	667.64	469.36	622.28	666.72	481.39	712.62	755.58	480.68	632.98	551.59	475.94	639.77	543.79	349.42	569.04	328.34	494.1	625.81	260.16	480.08	561.34	251.24	485.28	634.45	335.86	488.62	587.76	112.32	471.9	605.88	112.22	385.14	522.45	74.404	428.61	531.26	43.714	397.79	529.11	43.264	463.32	704.59	36.312	507.02	734.55	44.286	387.43	799.88	54.026	436.38	667.57	733.53	129.44	714.11	645.49	176.98	643.36	646.39	141.8	732.6	738.09	162.11	620.37	551.17	151.27	655.84	543.08	269.12	559.37	326.47	143.43	620.59	262.54	133.65	552.99	254.37	153.44	624.11	334.04	128.99	589.61	111.54	136.71	606.62	109	225.48	518.8	72.984	179.39	525.45	46.143	211.74	522.33	47.348	149.68	697.42	45.784	98.899	727.63	43.47	216.31	795.35	55.516	157.46	571.7	1560	307.68	523.94	1291.7	308.35
904	3.7625	758.04	1313.5	315.13	614.42	1542.8	465.59	614.39	1533.7	147.96	674.39	1828.5	309.02	725.31	1065.8	440.9	733.39	1059	187.75	527.99	1084.8	341.55	529.55	1087.9	261.53	662.23	1001.3	489.58	635.19	995.28	133.95	639.15	1142.4	468.79	663.48	1134.7	149.56	514.82	1051.5	304.44	640.51	753.04	496.16	690.3	667.65	469.34	622.26	666.73	481.38	712.59	755.59	480.68	632.97	551.61	475.93	639.77	543.81	349.42	569.04	328.34	494.1	625.8	260.15	480.08	561.33	251.24	485.28	634.45	335.86	488.61	587.76	112.32	471.9	605.88	112.22	385.14	522.45	74.403	428.61	531.25	43.712	397.79	529.11	43.263	463.32	704.59	36.312	507.02	734.55	44.286	387.43	799.88	54.028	436.38	667.56	733.53	129.44	714.11	645.49	176.98	643.36	646.39	141.8	732.59	738.09	162.11	620.37	551.17	151.27	655.85	543.08	269.11	559.37	326.47	143.43	620.59	262.54	133.65	552.99	254.37	153.44	624.11	334.04	128.99	589.61	111.54	136.71	606.62	109	225.48	518.8	72.982	179.39	525.45	46.142	211.74	522.32	47.345	149.68	697.42	45.785	98.899	727.63	43.469	216.31	795.36	55.519	157.46	571.67	1560	307.67	523.92	1291.7	308.35
905	3.7667	758.02	1313.5	315.12	614.4	1542.8	465.59	614.36	1533.7	147.96	674.37	1828.5	309.03	725.28	1065.8	440.89	733.37	1059	187.74	527.97	1084.8	341.55	529.52	1087.9	261.53	662.21	1001.3	489.57	635.17	995.28	133.95	639.12	1142.4	468.79	663.45	1134.7	149.56	514.8	1051.5	304.44	640.48	753.05	496.16	690.27	667.66	469.31	622.24	666.74	481.37	712.57	755.6	480.67	632.96	551.63	475.93	639.77	543.83	349.42	569.03	328.34	494.09	625.8	260.15	480.08	561.33	251.24	485.28	634.44	335.86	488.61	587.75	112.32	471.9	605.87	112.22	385.14	522.45	74.403	428.61	531.25	43.711	397.79	529.11	43.261	463.32	704.58	36.312	507.02	734.55	44.286	387.43	799.88	54.03	436.38	667.55	733.54	129.43	714.1	645.5	176.97	643.36	646.39	141.79	732.58	738.1	162.1	620.37	551.17	151.26	655.85	543.08	269.11	559.37	326.46	143.43	620.6	262.54	133.64	552.99	254.37	153.43	624.11	334.03	128.98	589.61	111.54	136.71	606.63	108.99	225.48	518.79	72.98	179.39	525.45	46.142	211.74	522.32	47.342	149.68	697.42	45.785	98.899	727.63	43.468	216.31	795.36	55.522	157.46	571.64	1560	307.65	523.91	1291.7	308.36
906	3.7708	757.99	1313.5	315.12	614.38	1542.8	465.59	614.33	1533.7	147.95	674.35	1828.5	309.03	725.26	1065.8	440.89	733.34	1059	187.73	527.94	1084.8	341.55	529.5	1087.9	261.53	662.2	1001.3	489.57	635.14	995.27	133.95	639.09	1142.4	468.79	663.42	1134.7	149.56	514.78	1051.5	304.44	640.46	753.05	496.15	690.25	667.68	469.28	622.22	666.74	481.35	712.54	755.6	480.67	632.95	551.65	475.93	639.76	543.85	349.41	569.02	328.34	494.09	625.79	260.15	480.08	561.32	251.24	485.27	634.43	335.86	488.61	587.75	112.32	471.9	605.87	112.22	385.14	522.45	74.402	428.61	531.25	43.709	397.79	529.11	43.259	463.32	704.58	36.312	507.02	734.55	44.286	387.43	799.88	54.032	436.38	667.54	733.54	129.43	714.1	645.5	176.97	643.35	646.39	141.79	732.57	738.1	162.1	620.37	551.17	151.26	655.85	543.08	269.11	559.37	326.46	143.43	620.6	262.54	133.64	552.99	254.37	153.43	624.12	334.03	128.98	589.61	111.54	136.71	606.63	108.99	225.48	518.79	72.977	179.39	525.45	46.142	211.74	522.32	47.339	149.68	697.42	45.785	98.899	727.63	43.467	216.31	795.36	55.524	157.46	571.62	1560	307.64	523.89	1291.7	308.36
907	3.775	757.97	1313.5	315.11	614.35	1542.8	465.59	614.3	1533.7	147.95	674.33	1828.5	309.03	725.24	1065.8	440.89	733.32	1059	187.72	527.91	1084.8	341.54	529.47	1087.9	261.53	662.18	1001.3	489.57	635.12	995.27	133.94	639.06	1142.4	468.79	663.39	1134.7	149.55	514.75	1051.5	304.44	640.44	753.05	496.15	690.22	667.69	469.25	622.19	666.75	481.34	712.52	755.61	480.67	632.94	551.67	475.92	639.76	543.88	349.4	569.01	328.34	494.08	625.79	260.15	480.08	561.32	251.24	485.27	634.42	335.86	488.61	587.75	112.31	471.9	605.87	112.22	385.14	522.44	74.401	428.61	531.25	43.708	397.79	529.11	43.257	463.32	704.58	36.312	507.02	734.55	44.286	387.43	799.88	54.033	436.38	667.54	733.54	129.42	714.1	645.51	176.96	643.35	646.39	141.79	732.57	738.11	162.09	620.37	551.17	151.26	655.86	543.08	269.1	559.37	326.46	143.42	620.6	262.54	133.64	552.99	254.37	153.43	624.12	334.03	128.98	589.61	111.54	136.71	606.62	108.99	225.48	518.78	72.974	179.39	525.45	46.141	211.74	522.32	47.335	149.68	697.42	45.786	98.899	727.63	43.466	216.31	795.36	55.527	157.46	571.59	1560	307.63	523.87	1291.6	308.37
